<svg viewBox="0 0 102 112" fill="none" xmlns="http://www.w3.org/2000/svg"><path d="M61.997 29.562a27.343 27.343 0 0 0-5.997-.66c-14.941 0-27.097 12.155-27.097 27.096S41.06 83.095 56 83.095a26.916 26.916 0 0 0 19.161-7.936l20.436 20.436A55.64 55.64 0 0 1 56 111.998c-30.88 0-56-25.122-56-56s25.12-56 56-56a55.638 55.638 0 0 1 39.597 16.403l2.273 2.27a11.241 11.241 0 0 1 0 15.897l-31.65 31.65a14.452 14.452 0 1 1-20.44-20.44l16.217-16.216Z" fill="url(#epassi-logo-linear-gradient)"></path><defs><linearGradient id="epassi-logo-linear-gradient" x1="50.581" y1="110.161" x2="50.581" y2="1.748" gradientUnits="userSpaceOnUse"><stop stop-color="#FF612F"></stop><stop offset="0.4" stop-color="#E5007D"></stop><stop offset="0.7" stop-color="#6C10B9"></stop><stop offset="1" stop-color="#3B9CDB"></stop></linearGradient></defs></svg>