<svg width="384" height="120" viewBox="0 0 384 120" fill="none" xmlns="http://www.w3.org/2000/svg">
<g clip-path="url(#clip0)">
<path d="M358.735 12.6316C358.735 10.1333 359.476 7.69111 360.864 5.61386C362.252 3.5366 364.224 1.91758 366.533 0.961527C368.841 0.00547306 371.38 -0.244674 373.831 0.242718C376.281 0.73011 378.532 1.93315 380.298 3.69971C382.065 5.46627 383.268 7.717 383.755 10.1673C384.243 12.6176 383.993 15.1574 383.037 17.4655C382.081 19.7736 380.461 21.7464 378.384 23.1344C376.307 24.5223 373.865 25.2632 371.366 25.2632C368.016 25.2632 364.803 23.9323 362.435 21.5635C360.066 19.1946 358.735 15.9817 358.735 12.6316ZM361.261 107.368H381.472V31.579H361.261V107.368ZM332.209 59.3684H318.314C317.309 59.3684 316.345 58.9692 315.634 58.2585C314.924 57.5479 314.524 56.584 314.524 55.579C314.524 54.5739 314.924 53.6101 315.634 52.8994C316.345 52.1887 317.309 51.7895 318.314 51.7895H344.84C347.52 51.7895 350.091 50.7248 351.986 48.8297C353.881 46.9346 354.945 44.3643 354.945 41.6842C354.945 39.0041 353.881 36.4338 351.986 34.5387C350.091 32.6436 347.52 31.579 344.84 31.579H318.314C311.949 31.579 305.844 34.1075 301.343 38.6084C296.842 43.1093 294.314 49.2138 294.314 55.579C294.314 61.9442 296.842 68.0486 301.343 72.5495C305.844 77.0504 311.949 79.579 318.314 79.579H332.209C333.214 79.579 334.177 79.9782 334.888 80.6889C335.599 81.3995 335.998 82.3634 335.998 83.3684C335.998 84.3735 335.599 85.3373 334.888 86.048C334.177 86.7587 333.214 87.1579 332.209 87.1579H295.577V107.368H332.209C338.574 107.368 344.678 104.84 349.179 100.339C353.68 95.8381 356.209 89.7336 356.209 83.3684C356.209 77.0032 353.68 70.8987 349.179 66.3979C344.678 61.897 338.574 59.3684 332.209 59.3684ZM267.788 59.3684H253.893C252.888 59.3684 251.924 58.9692 251.213 58.2585C250.503 57.5479 250.103 56.584 250.103 55.579C250.103 54.5739 250.503 53.6101 251.213 52.8994C251.924 52.1887 252.888 51.7895 253.893 51.7895H280.419C283.099 51.7895 285.67 50.7248 287.565 48.8297C289.46 46.9346 290.524 44.3643 290.524 41.6842C290.524 39.0041 289.46 36.4338 287.565 34.5387C285.67 32.6436 283.099 31.579 280.419 31.579H253.893C247.528 31.579 241.423 34.1075 236.922 38.6084C232.421 43.1093 229.893 49.2138 229.893 55.579C229.893 61.9442 232.421 68.0486 236.922 72.5495C241.423 77.0504 247.528 79.579 253.893 79.579H267.788C268.793 79.579 269.756 79.9782 270.467 80.6889C271.178 81.3995 271.577 82.3634 271.577 83.3684C271.577 84.3735 271.178 85.3373 270.467 86.048C269.756 86.7587 268.793 87.1579 267.788 87.1579H231.156V107.368H267.788C274.153 107.368 280.257 104.84 284.758 100.339C289.259 95.8381 291.788 89.7336 291.788 83.3684C291.788 77.0032 289.259 70.8987 284.758 66.3979C280.257 61.897 274.153 59.3684 267.788 59.3684ZM226.103 69.4737V107.368H205.893V102.992C198.57 106.856 190.182 108.215 182.014 106.861C173.845 105.508 166.345 101.516 160.659 95.4962C154.974 89.4766 151.416 81.7605 150.531 73.5279C149.646 65.2953 151.481 56.9993 155.757 49.9085C160.032 42.8178 166.513 37.3225 174.207 34.2631C181.901 31.2037 190.385 30.7486 198.363 32.9672C206.34 35.1859 213.371 39.9563 218.381 46.549C223.39 53.1416 226.103 61.1936 226.103 69.4737ZM205.893 69.4737C205.893 65.9761 204.856 62.557 202.913 59.6489C200.969 56.7407 198.207 54.4741 194.976 53.1356C191.745 51.7971 188.189 51.4469 184.759 52.1293C181.328 52.8116 178.177 54.4959 175.704 56.9691C173.231 59.4422 171.547 62.5933 170.864 66.0237C170.182 69.4541 170.532 73.0098 171.871 76.2411C173.209 79.4725 175.476 82.2344 178.384 84.1776C181.292 86.1207 184.711 87.1579 188.209 87.1579C192.899 87.1579 197.397 85.2948 200.713 81.9783C204.03 78.6619 205.893 74.1638 205.893 69.4737ZM147.788 69.4737C147.788 76.0035 146.101 82.4227 142.89 88.1087C139.68 93.7946 135.054 98.5545 129.463 101.927C123.871 105.299 117.503 107.169 110.976 107.355C104.448 107.542 97.9838 106.039 92.2086 102.992V120H71.9981V69.4737C71.9981 59.4234 75.9906 49.7847 83.0972 42.6781C90.2038 35.5714 99.8425 31.579 109.893 31.579C119.943 31.579 129.582 35.5714 136.688 42.6781C143.795 49.7847 147.788 59.4234 147.788 69.4737ZM127.577 69.4737C127.577 65.9761 126.54 62.557 124.597 59.6489C122.654 56.7407 119.892 54.4741 116.66 53.1356C113.429 51.7971 109.873 51.4469 106.443 52.1293C103.012 52.8116 99.8614 54.4959 97.3882 56.9691C94.915 59.4422 93.2308 62.5933 92.5484 66.0237C91.8661 69.4541 92.2163 73.0098 93.5548 76.2411C94.8932 79.4725 97.1599 82.2344 100.068 84.1776C102.976 86.1207 106.395 87.1579 109.893 87.1579C114.583 87.1579 119.081 85.2948 122.397 81.9783C125.714 78.6619 127.577 74.1638 127.577 69.4737ZM32.0128 62.3305C31.035 63.2596 30.253 64.375 29.713 65.611C29.173 66.847 28.8859 68.1786 28.8686 69.5273C28.8513 70.876 29.1043 72.2145 29.6124 73.4639C30.1206 74.7133 30.8738 75.8484 31.8276 76.8021C32.7813 77.7559 33.9164 78.5091 35.1658 79.0173C36.4152 79.5254 37.7537 79.7783 39.1024 79.7611C40.4511 79.7438 41.7827 79.4567 43.0187 78.9167C44.2547 78.3767 45.3701 77.5947 46.2991 76.6169L68.436 54.5116C69.9077 53.0363 70.7343 51.0375 70.7343 48.9537C70.7343 46.8698 69.9077 44.8711 68.436 43.3958L66.8444 41.8105C61.3681 36.3341 54.3909 32.6046 46.7949 31.0935C39.199 29.5825 31.3256 30.3579 24.1704 33.3217C17.0152 36.2854 10.8995 41.3044 6.59669 47.7439C2.29391 54.1834 -0.00268555 61.7542 -0.00268555 69.499C-0.00268555 77.2437 2.29391 84.8145 6.59669 91.254C10.8995 97.6935 17.0152 102.713 24.1704 105.676C31.3256 108.64 39.199 109.415 46.7949 107.904C54.3909 106.393 61.3681 102.664 66.8444 97.1874L52.5518 82.8948C50.3463 85.0926 47.6332 86.713 44.6524 87.6128C41.6716 88.5125 38.515 88.6638 35.4618 88.0532C32.4086 87.4426 29.553 86.0891 27.1474 84.1122C24.7419 82.1354 22.8606 79.5961 21.67 76.7191C20.4793 73.8422 20.016 70.7161 20.321 67.6175C20.6261 64.5188 21.69 61.5431 23.4188 58.9535C25.1476 56.3639 27.4879 54.2403 30.2328 52.7704C32.9776 51.3006 36.0424 50.5298 39.156 50.5263C40.5666 50.526 41.9729 50.6806 43.3497 50.9874L32.0128 62.3305Z" fill="url(#paint0_linear)"/>
</g>
<defs>
<linearGradient id="paint0_linear" x1="191.998" y1="31.56" x2="191.998" y2="107.627" gradientUnits="userSpaceOnUse">
<stop stop-color="#FF612F"/>
<stop offset="1" stop-color="#E5007D"/>
</linearGradient>
<clipPath id="clip0">
<rect width="384" height="120" fill="white"/>
</clipPath>
</defs>
</svg>
